# xmcd
#
# Track frame offsets:
#	150
#	11794
#	26752
#	40635
#	54698
#	65400
#	80137
#	90682
#	99804
#	114124
#	126514
#	138877
#
# Disc length: 1997 seconds
#
# Revision: 1
# Processed by: cddbd v1.5.2PL0 Copyright (c) Steve Scherf et al.
# Submitted via: audiograbber 1.83.01
#
DISCID=9907cb0c
DTITLE=George Jones - Original American Classics Vol. 1
DYEAR=2005
DGENRE=Country
TTITLE0=She Thinks I Still Care
TTITLE1=He Stopped Loving Her Today
TTITLE2=Golden Ring (with Tammy Wynette)
TTITLE3=A Good Year for the Roses
TTITLE4=Her Name Is
TTITLE5=Who's Gonna Fill their Shoes
TTITLE6=Treasure of Love
TTITLE7=Love Bug
TTITLE8=Open Pit Mine
TTITLE9=Wreck on the Highway (with Gene Pitney)
TTITLE10=Sometimes You Just Can't Win
TTITLE11=Four-O-Thirty-Three
EXTD=
EXTT0=
EXTT1=
EXTT2=
EXTT3=
EXTT4=
EXTT5=
EXTT6=
EXTT7=
EXTT8=
EXTT9=
EXTT10=
EXTT11=
PLAYORDER=
